<?xml version="1.0" encoding="UTF-8"?>
<svg width="503px" height="202px" viewBox="0 0 503 202" version="1.1" xmlns="http://www.w3.org/2000/svg" xmlns:xlink="http://www.w3.org/1999/xlink">
    <!-- Generator: Sketch 64 (93537) - https://sketch.com -->
    <title>chart-1</title>
    <desc>Created with Sketch.</desc>
    <g id="chart-1" stroke="none" stroke-width="1" fill="none" fill-rule="evenodd">
        <path d="M11.9710669,35.5896243 C14.7377939,35.5896243 15.9421338,33.4546935 15.9421338,29.7948121 C15.9421338,26.1349308 14.7377939,24 11.9710669,24 C9.20433996,24 8,26.1349308 8,29.7948121 C8,33.4546935 9.20433996,35.5896243 11.9710669,35.5896243 Z M11.9710669,34.4178202 C10.1482821,34.4178202 9.4159132,32.9570781 9.4159132,30.7097825 L9.4159132,28.8798418 C9.4159132,26.6325462 10.1482821,25.1718041 11.9710669,25.1718041 C13.7938517,25.1718041 14.5262206,26.6325462 14.5262206,28.8798418 L14.5262206,30.7097825 C14.5262206,32.9570781 13.7938517,34.4178202 11.9710669,34.4178202 Z M11.9710669,30.7418867 C12.7197107,30.7418867 12.9801085,30.4047924 12.9801085,29.9713854 L12.9801085,29.6182389 C12.9801085,29.1848319 12.7197107,28.8477376 11.9710669,28.8477376 C11.2224231,28.8477376 10.9620253,29.1848319 10.9620253,29.6182389 L10.9620253,29.9713854 C10.9620253,30.4047924 11.2224231,30.7418867 11.9710669,30.7418867 Z M24.3074141,35.396999 L24.3074141,33.1978597 L26,33.1978597 L26,32.090264 L24.3074141,32.090264 L24.3074141,24.1926253 L22.3218807,24.1926253 L17.4068716,32.0100035 L17.4068716,33.1978597 L23.005425,33.1978597 L23.005425,35.396999 L24.3074141,35.396999 Z M23.005425,32.090264 L18.6274864,32.090264 L22.9403255,25.2360126 L23.005425,25.2360126 L23.005425,32.090264 Z M11.9710669,97.2948121 C14.7377939,97.2948121 15.9421338,95.1598814 15.9421338,91.5 C15.9421338,87.8401186 14.7377939,85.7051879 11.9710669,85.7051879 C9.20433996,85.7051879 8,87.8401186 8,91.5 C8,95.1598814 9.20433996,97.2948121 11.9710669,97.2948121 Z M11.9710669,96.123008 C10.1482821,96.123008 9.4159132,94.6622659 9.4159132,92.4149703 L9.4159132,90.5850297 C9.4159132,88.3377341 10.1482821,86.876992 11.9710669,86.876992 C13.7938517,86.876992 14.5262206,88.3377341 14.5262206,90.5850297 L14.5262206,92.4149703 C14.5262206,94.6622659 13.7938517,96.123008 11.9710669,96.123008 Z M11.9710669,92.4470746 C12.7197107,92.4470746 12.9801085,92.1099802 12.9801085,91.6765732 L12.9801085,91.3234268 C12.9801085,90.8900198 12.7197107,90.5529254 11.9710669,90.5529254 C11.2224231,90.5529254 10.9620253,90.8900198 10.9620253,91.3234268 L10.9620253,91.6765732 C10.9620253,92.1099802 11.2224231,92.4470746 11.9710669,92.4470746 Z M21.3616637,97.2948121 C23.721519,97.2948121 25.283906,95.9624869 25.283906,94.0362336 C25.283906,92.3507619 24.0958409,91.4518437 22.8426763,91.211062 L22.8426763,91.1468536 C24.079566,90.8418634 25.0560579,89.9750494 25.0560579,88.5303594 C25.0560579,86.7164709 23.5099458,85.7051879 21.5732369,85.7051879 C19.7179024,85.7051879 18.7088608,86.6362103 18.1229656,87.5351285 L19.1482821,88.3056299 C19.6202532,87.454868 20.3363472,86.876992 21.5406872,86.876992 C22.7775769,86.876992 23.6238698,87.4869722 23.6238698,88.6748284 L23.6238698,88.7871932 C23.6238698,89.8626847 22.8264014,90.6492381 21.2477396,90.6492381 L19.994575,90.6492381 L19.994575,91.8049901 L21.3453888,91.8049901 C23.005425,91.8049901 23.8517179,92.5754915 23.8517179,93.8917646 L23.8517179,94.0201815 C23.8517179,95.3525067 22.9566004,96.123008 21.3616637,96.123008 C19.9294756,96.123008 19.2622061,95.4969757 18.6600362,94.6141096 L17.6347197,95.3846109 C18.3345389,96.3477376 19.3598553,97.2948121 21.3616637,97.2948121 Z M11.9710669,158 C14.7377939,158 15.9421338,155.865069 15.9421338,152.205188 C15.9421338,148.545307 14.7377939,146.410376 11.9710669,146.410376 C9.20433996,146.410376 8,148.545307 8,152.205188 C8,155.865069 9.20433996,158 11.9710669,158 Z M11.9710669,156.828196 C10.1482821,156.828196 9.4159132,155.367454 9.4159132,153.120158 L9.4159132,151.290218 C9.4159132,149.042922 10.1482821,147.58218 11.9710669,147.58218 C13.7938517,147.58218 14.5262206,149.042922 14.5262206,151.290218 L14.5262206,153.120158 C14.5262206,155.367454 13.7938517,156.828196 11.9710669,156.828196 Z M11.9710669,153.152262 C12.7197107,153.152262 12.9801085,152.815168 12.9801085,152.381761 L12.9801085,152.028615 C12.9801085,151.595208 12.7197107,151.258113 11.9710669,151.258113 C11.2224231,151.258113 10.9620253,151.595208 10.9620253,152.028615 L10.9620253,152.381761 C10.9620253,152.815168 11.2224231,153.152262 11.9710669,153.152262 Z M25.5931284,157.807375 L25.5931284,156.635571 L19.4249548,156.635571 L22.5985533,153.906712 C24.1121157,152.606491 25.1374322,151.354426 25.1374322,149.652902 C25.1374322,147.758753 23.8679928,146.410376 21.6057866,146.410376 C19.3761302,146.410376 18.3508137,147.726649 17.9113924,149.042922 L19.1320072,149.492381 C19.4900542,148.336629 20.1898734,147.58218 21.5732369,147.58218 C22.9728752,147.58218 23.7052441,148.352681 23.7052441,149.701059 L23.7052441,149.893684 C23.7052441,151.033384 22.9077758,152.076771 21.801085,153.05595 L18.0090416,156.426893 L18.0090416,157.807375 L25.5931284,157.807375 Z" id="0504030201" fill="#000000" fill-rule="nonzero"></path>
        <line x1="37.5" y1="17.5" x2="59.5" y2="17.5" id="Line-2" stroke="#000000" stroke-width="0.5" opacity="0.5" stroke-linecap="square"></line>
        <path d="M282.736,198 L282.736,197.124 L280.528,197.124 L280.528,189.624 L278.956,189.624 L276.736,191.7 L277.324,192.336 L279.436,190.368 L279.52,190.368 L279.52,197.124 L277.12,197.124 L277.12,198 L282.736,198 Z M293.98,198 C296.02,198 297.028,196.56 297.028,193.812 C297.028,191.064 296.02,189.624 293.98,189.624 L291.64,189.624 L291.64,198 L293.98,198 Z M293.932,197.124 L292.648,197.124 L292.648,190.5 L293.932,190.5 C295.264,190.5 295.96,191.484 295.96,193.164 L295.96,194.46 C295.96,196.14 295.264,197.124 293.932,197.124 Z M299.116,198 L299.824,195.612 L302.764,195.612 L303.472,198 L304.54,198 L301.972,189.624 L300.64,189.624 L298.072,198 L299.116,198 Z M302.524,194.736 L300.064,194.736 L301.24,190.692 L301.348,190.692 L302.524,194.736 Z M309.004,198 L309.004,194.712 L311.896,189.624 L310.768,189.624 L309.568,191.808 L308.524,193.716 L308.476,193.716 L307.456,191.808 L306.256,189.624 L305.104,189.624 L307.996,194.712 L307.996,198 L309.004,198 Z M320.716,198 L321.424,195.612 L324.364,195.612 L325.072,198 L326.14,198 L323.572,189.624 L322.24,189.624 L319.672,198 L320.716,198 Z M324.124,194.736 L321.664,194.736 L322.84,190.692 L322.948,190.692 L324.124,194.736 Z M329.872,198.144 C331.024,198.144 331.492,197.532 331.768,196.884 L331.828,196.884 L331.828,198 L332.764,198 L332.764,193.86 L330.064,193.86 L330.064,194.664 L331.828,194.664 L331.828,195.528 C331.828,196.56 331.18,197.292 330.1,197.292 C328.732,197.292 328.24,196.104 328.24,194.424 L328.24,193.128 C328.24,191.448 328.852,190.356 330.196,190.356 C331.204,190.356 331.6,190.968 331.9,191.712 L332.764,191.316 C332.404,190.404 331.732,189.48 330.16,189.48 C328.144,189.48 327.172,191.016 327.172,193.872 C327.172,196.608 328.06,198.144 329.872,198.144 Z M337.3,198.144 C339.34,198.144 340.228,196.548 340.228,193.812 C340.228,191.076 339.34,189.48 337.3,189.48 C335.26,189.48 334.372,191.076 334.372,193.812 C334.372,196.548 335.26,198.144 337.3,198.144 Z M337.3,197.268 C335.968,197.268 335.44,196.176 335.44,194.496 L335.44,193.128 C335.44,191.448 335.968,190.356 337.3,190.356 C338.632,190.356 339.16,191.448 339.16,193.128 L339.16,194.496 C339.16,196.176 338.632,197.268 337.3,197.268 Z" id="1DAYAGO" fill="#000000" fill-rule="nonzero"></path>
        <path d="M437.104,198 L437.104,190.5 L439.9,190.5 L439.9,189.624 L433.3,189.624 L433.3,190.5 L436.096,190.5 L436.096,198 L437.104,198 Z M443.8,198.144 C445.84,198.144 446.728,196.548 446.728,193.812 C446.728,191.076 445.84,189.48 443.8,189.48 C441.76,189.48 440.872,191.076 440.872,193.812 C440.872,196.548 441.76,198.144 443.8,198.144 Z M443.8,197.268 C442.468,197.268 441.94,196.176 441.94,194.496 L441.94,193.128 C441.94,191.448 442.468,190.356 443.8,190.356 C445.132,190.356 445.66,191.448 445.66,193.128 L445.66,194.496 C445.66,196.176 445.132,197.268 443.8,197.268 Z M450.88,198 C452.92,198 453.928,196.56 453.928,193.812 C453.928,191.064 452.92,189.624 450.88,189.624 L448.54,189.624 L448.54,198 L450.88,198 Z M450.832,197.124 L449.548,197.124 L449.548,190.5 L450.832,190.5 C452.164,190.5 452.86,191.484 452.86,193.164 L452.86,194.46 C452.86,196.14 452.164,197.124 450.832,197.124 Z M456.016,198 L456.724,195.612 L459.664,195.612 L460.372,198 L461.44,198 L458.872,189.624 L457.54,189.624 L454.972,198 L456.016,198 Z M459.424,194.736 L456.964,194.736 L458.14,190.692 L458.248,190.692 L459.424,194.736 Z M465.904,198 L465.904,194.712 L468.796,189.624 L467.668,189.624 L466.468,191.808 L465.424,193.716 L465.376,193.716 L464.356,191.808 L463.156,189.624 L462.004,189.624 L464.896,194.712 L464.896,198 L465.904,198 Z" id="TODAY" fill="#000000" fill-rule="nonzero"></path>
        <path d="M136.944,198 L136.944,197.124 L132.396,197.124 L134.736,195.084 C135.852,194.112 136.608,193.176 136.608,191.904 C136.608,190.488 135.672,189.48 134.004,189.48 C132.36,189.48 131.604,190.464 131.28,191.448 L132.18,191.784 C132.444,190.92 132.96,190.356 133.98,190.356 C135.012,190.356 135.552,190.932 135.552,191.94 L135.552,192.084 C135.552,192.936 134.964,193.716 134.148,194.448 L131.352,196.968 L131.352,198 L136.944,198 Z M148.38,198 C150.42,198 151.428,196.56 151.428,193.812 C151.428,191.064 150.42,189.624 148.38,189.624 L146.04,189.624 L146.04,198 L148.38,198 Z M148.332,197.124 L147.048,197.124 L147.048,190.5 L148.332,190.5 C149.664,190.5 150.36,191.484 150.36,193.164 L150.36,194.46 C150.36,196.14 149.664,197.124 148.332,197.124 Z M153.516,198 L154.224,195.612 L157.164,195.612 L157.872,198 L158.94,198 L156.372,189.624 L155.04,189.624 L152.472,198 L153.516,198 Z M156.924,194.736 L154.464,194.736 L155.64,190.692 L155.748,190.692 L156.924,194.736 Z M163.404,198 L163.404,194.712 L166.296,189.624 L165.168,189.624 L163.968,191.808 L162.924,193.716 L162.876,193.716 L161.856,191.808 L160.656,189.624 L159.504,189.624 L162.396,194.712 L162.396,198 L163.404,198 Z M170.076,198.144 C171.936,198.144 173.004,197.208 173.004,195.66 C173.004,194.568 172.464,193.656 170.82,193.368 L169.92,193.212 C168.732,193.008 168.348,192.528 168.348,191.784 C168.348,190.836 168.984,190.344 170.112,190.344 C171.156,190.344 171.756,190.764 172.224,191.376 L172.932,190.764 C172.368,189.96 171.456,189.48 170.124,189.48 C168.42,189.48 167.328,190.272 167.328,191.808 C167.328,192.864 167.844,193.812 169.488,194.088 L170.424,194.244 C171.564,194.436 171.984,194.868 171.984,195.684 C171.984,196.692 171.324,197.28 170.112,197.28 C169.104,197.28 168.42,196.884 167.772,196.068 L167.04,196.668 C167.664,197.532 168.576,198.144 170.076,198.144 Z M182.316,198 L183.024,195.612 L185.964,195.612 L186.672,198 L187.74,198 L185.172,189.624 L183.84,189.624 L181.272,198 L182.316,198 Z M185.724,194.736 L183.264,194.736 L184.44,190.692 L184.548,190.692 L185.724,194.736 Z M191.472,198.144 C192.624,198.144 193.092,197.532 193.368,196.884 L193.428,196.884 L193.428,198 L194.364,198 L194.364,193.86 L191.664,193.86 L191.664,194.664 L193.428,194.664 L193.428,195.528 C193.428,196.56 192.78,197.292 191.7,197.292 C190.332,197.292 189.84,196.104 189.84,194.424 L189.84,193.128 C189.84,191.448 190.452,190.356 191.796,190.356 C192.804,190.356 193.2,190.968 193.5,191.712 L194.364,191.316 C194.004,190.404 193.332,189.48 191.76,189.48 C189.744,189.48 188.772,191.016 188.772,193.872 C188.772,196.608 189.66,198.144 191.472,198.144 Z M198.9,198.144 C200.94,198.144 201.828,196.548 201.828,193.812 C201.828,191.076 200.94,189.48 198.9,189.48 C196.86,189.48 195.972,191.076 195.972,193.812 C195.972,196.548 196.86,198.144 198.9,198.144 Z M198.9,197.268 C197.568,197.268 197.04,196.176 197.04,194.496 L197.04,193.128 C197.04,191.448 197.568,190.356 198.9,190.356 C200.232,190.356 200.76,191.448 200.76,193.128 L200.76,194.496 C200.76,196.176 200.232,197.268 198.9,197.268 Z" id="2DAYSAGO" fill="#000000" fill-rule="nonzero"></path>
        <line x1="166.5" y1="0.313380282" x2="166.5" y2="177.68662" id="Line-3-Copy" stroke="#000000" stroke-width="0.5" stroke-linecap="square"></line>
        <line x1="308.5" y1="0.313380282" x2="308.5" y2="177.68662" id="Line-3" stroke="#000000" stroke-width="0.5" stroke-linecap="square"></line>
        <line x1="451.5" y1="0.313380282" x2="451.5" y2="177.68662" id="Line-3-Copy-2" stroke="#000000" stroke-width="0.5" stroke-linecap="square"></line>
        <circle id="Oval" fill="#000000" cx="451.5" cy="66.5" r="2.5"></circle>
        <line x1="37.4043478" y1="29.5833333" x2="502" y2="29.5833333" id="Line-Copy" stroke="#000000" stroke-linecap="square"></line>
        <line x1="37.5" y1="41.6666667" x2="59.5" y2="41.6666667" id="Line-2-Copy-3" stroke="#000000" stroke-width="0.5" opacity="0.5" stroke-linecap="square"></line>
        <line x1="37.5" y1="53.75" x2="59.5" y2="53.75" id="Line-2-Copy-2" stroke="#000000" stroke-width="0.5" opacity="0.5" stroke-linecap="square"></line>
        <line x1="37.5" y1="66.3333333" x2="59.5" y2="66.3333333" id="Line-2-Copy" stroke="#000000" stroke-width="0.5" opacity="0.5" stroke-linecap="square"></line>
        <line x1="37.5" y1="78.9166667" x2="59.5" y2="78.9166667" id="Line-2" stroke="#000000" stroke-width="0.5" opacity="0.5" stroke-linecap="square"></line>
        <line x1="37.4043478" y1="91" x2="502" y2="91" id="Line-Copy-2" stroke="#000000" stroke-linecap="square"></line>
        <line x1="37.5" y1="103.083333" x2="59.5" y2="103.083333" id="Line-2-Copy-3" stroke="#000000" stroke-width="0.5" opacity="0.5" stroke-linecap="square"></line>
        <line x1="37.5" y1="115.166667" x2="59.5" y2="115.166667" id="Line-2-Copy-2" stroke="#000000" stroke-width="0.5" opacity="0.5" stroke-linecap="square"></line>
        <line x1="37.5" y1="127.75" x2="59.5" y2="127.75" id="Line-2-Copy" stroke="#000000" stroke-width="0.5" opacity="0.5" stroke-linecap="square"></line>
        <line x1="37.5" y1="140.333333" x2="59.5" y2="140.333333" id="Line-2" stroke="#000000" stroke-width="0.5" opacity="0.5" stroke-linecap="square"></line>
        <line x1="37.4043478" y1="152.416667" x2="502" y2="152.416667" id="Line-Copy-3" stroke="#000000" stroke-linecap="square"></line>
        <line x1="37.5" y1="164.5" x2="59.5" y2="164.5" id="Line-2-Copy-3" stroke="#000000" stroke-width="0.5" opacity="0.5" stroke-linecap="square"></line>
    </g>
</svg>